<?xml version="1.0" encoding="UTF-8" standalone="no"?>
<!-- Created with Inkscape (http://www.inkscape.org/) -->

<svg
   version="1.1"
   id="svg2"
   xml:space="preserve"
   width="351.49612"
   height="41.575066"
   viewBox="0 0 351.49613 41.575065"
   sodipodi:docname="cariad-logo.svg"
   inkscape:version="1.2.1 (9c6d41e410, 2022-07-14)"
   xmlns:inkscape="http://www.inkscape.org/namespaces/inkscape"
   xmlns:sodipodi="http://sodipodi.sourceforge.net/DTD/sodipodi-0.dtd"
   xmlns="http://www.w3.org/2000/svg"
   xmlns:svg="http://www.w3.org/2000/svg"><defs
     id="defs6" /><sodipodi:namedview
     id="namedview4"
     pagecolor="#ffffff"
     bordercolor="#666666"
     borderopacity="1.0"
     inkscape:pageshadow="2"
     inkscape:pageopacity="0.0"
     inkscape:pagecheckerboard="0"
     inkscape:showpageshadow="2"
     inkscape:deskcolor="#d1d1d1"
     showgrid="false"
     inkscape:zoom="3.5225957"
     inkscape:cx="175.72269"
     inkscape:cy="21.007236"
     inkscape:window-width="3840"
     inkscape:window-height="2036"
     inkscape:window-x="-12"
     inkscape:window-y="-12"
     inkscape:window-maximized="1"
     inkscape:current-layer="g8" /><g
     id="g8"
     inkscape:groupmode="layer"
     inkscape:label="ink_ext_XXXXXX"
     transform="matrix(1.3333333,0,0,-1.3333333,-83.150531,83.151065)"><g
       id="g10"
       transform="scale(0.1)"><path
         d="m 1289.8,615.117 h -19.5 l -125.29,-290.91 15.62,-6.727 119.42,277.567 119.41,-277.567 15.62,6.727 z m 1325.27,0 h -19.51 l -125.28,-290.91 15.62,-6.727 119.41,277.852 119.42,-277.852 15.62,6.727 z m -69.04,-213.113 v 17.008 h 118.57 v -17.008 z m -735.22,48.312 -14.65,-8.632 73.16,-124.204 14.66,8.633 z m 51.13,90.395 c 0,-42.371 -34.09,-57.41 -64.01,-57.41 h -83.62 v 114.82 h 83.62 c 29.92,0 64.01,-15.035 64.01,-57.41 z m -64.01,-74.426 c 48.2,0 81.86,30.61 81.86,74.426 0,43.82 -33.66,74.426 -81.86,74.426 h -93.4 v -0.02 h -7.23 V 320.316 h 17.01 V 466.285 Z M 775.281,328.824 c -74.359,0 -133.793,62.192 -133.793,138.903 0,76.711 59.434,138.898 133.793,138.898 44.657,0 84.121,-22.52 108.617,-57.051 l 13.571,10.223 c -27.602,38.644 -71.977,63.836 -122.188,63.836 -83.754,0 -151.652,-69.801 -151.652,-155.906 0,-86.11 67.898,-155.907 151.652,-155.907 50.211,0 94.586,25.192 122.188,63.832 l -13.571,10.227 C 859.402,351.348 819.938,328.824 775.281,328.824 Z M 3112.45,615.117 h -56.69 v -17.008 h 56.69 c 72.01,0 129.54,-58.379 129.54,-130.39 0,-72.02 -57.53,-130.395 -129.54,-130.395 h -56.69 v -17.008 h 56.69 c 81.41,0 147.4,65.993 147.4,147.403 0,81.406 -65.99,147.398 -147.4,147.398 z m -96.38,0 h 17.01 V 320.316 h -17.01 z M 1220.76,402.004 v 17.008 h 118.57 v -17.008 z m 950.42,213.113 h 17 V 320.316 h -17 v 294.801"
         style="fill:#ffffff;fill-opacity:1;fill-rule:nonzero;stroke:none"
         id="path12" /></g></g></svg>
