<?xml version="1.0" encoding="UTF-8" standalone="no"?>
<!-- Created with Inkscape (http://www.inkscape.org/) -->

<svg
   version="1.1"
   id="svg2"
   xml:space="preserve"
   width="623.62"
   height="237.82156"
   viewBox="0 0 623.62 237.82157"
   sodipodi:docname="donat_it-logo.svg"
   inkscape:version="1.2.1 (9c6d41e410, 2022-07-14)"
   xmlns:inkscape="http://www.inkscape.org/namespaces/inkscape"
   xmlns:sodipodi="http://sodipodi.sourceforge.net/DTD/sodipodi-0.dtd"
   xmlns="http://www.w3.org/2000/svg"
   xmlns:svg="http://www.w3.org/2000/svg"><defs
     id="defs6" /><sodipodi:namedview
     id="namedview4"
     pagecolor="#ffffff"
     bordercolor="#666666"
     borderopacity="1.0"
     inkscape:pageshadow="2"
     inkscape:pageopacity="0.0"
     inkscape:pagecheckerboard="0"
     inkscape:showpageshadow="2"
     inkscape:deskcolor="#d1d1d1"
     showgrid="false"
     inkscape:zoom="2.9248269"
     inkscape:cx="311.81332"
     inkscape:cy="118.9814"
     inkscape:window-width="3840"
     inkscape:window-height="2036"
     inkscape:window-x="-12"
     inkscape:window-y="-12"
     inkscape:window-maximized="1"
     inkscape:current-layer="g8" /><g
     id="g8"
     inkscape:groupmode="layer"
     inkscape:label="ink_ext_XXXXXX"
     transform="matrix(1.3333333,0,0,-1.3333333,0,237.81999)"><g
       id="g10"
       transform="scale(0.1)"><path
         d="m 408.023,124.738 c 41.329,0 44.332,0 62.368,6 36.816,11.274 46.589,37.582 46.589,124 0,105.192 -18.035,126.981 -105.953,126.981 H 152.535 V 124.738 Z M 0,506.469 h 432.824 c 105.946,0 155.543,-12.028 190.106,-46.59 27.804,-27.059 39.078,-58.617 44.336,-122.488 1.5,-23.289 3.004,-57.86 3.004,-81.911 0,-45.082 -3.004,-96.921 -7.516,-125.492 C 654.492,69.8906 612.414,23.2891 557.555,12.7813 529.004,6.76953 506.461,5.26172 453.113,5.26172 H 0 V 506.469"
         style="fill:#ffffff;fill-opacity:1;fill-rule:nonzero;stroke:none"
         id="path12" /><path
         d="m 961.102,371.199 c -20.289,-15.777 -26.301,-40.57 -26.301,-112.699 0,-73.648 6.012,-100.691 24.801,-116.488 20.289,-16.524 45.078,-19.532 160.048,-19.532 131.5,0 158.55,4.508 175.83,28.559 14.28,18.031 18.04,43.582 18.04,110.461 0,126.238 -2.25,127.738 -190.11,127.738 -111.96,0 -142.773,-3.758 -162.308,-18.039 z m 374.208,133 c 77.4,-14.269 114.97,-54.09 125.49,-134.5 3.01,-20.277 4.51,-60.859 4.51,-121.73 0,-120.981 -12.77,-169.8206 -55.61,-205.1409 -30.05,-25.539 -72.14,-37.56638 -145.02,-40.56638 -27.06,-1.523439 -93.93,-2.2734388 -142.77,-2.2734388 -119.48,0 -180.347,2.2734388 -210.398,8.2734388 C 855.906,18.0391 823.59,39.0703 804.801,75.8906 785.27,112.719 780.758,149.531 780.758,259.238 c 0,84.16 1.504,105.211 10.523,139.012 14.278,53.352 43.578,81.922 99.942,98.441 42.074,12.02 87.914,15.028 220.167,15.028 144.27,0 188.61,-1.489 223.92,-7.52"
         style="fill:#ffffff;fill-opacity:1;fill-rule:nonzero;stroke:none"
         id="path14" /><path
         d="m 1585.56,506.469 h 242.71 l 303.58,-380.981 -3.76,380.981 h 144.28 V 5.26172 H 2027.4 L 1728.33,382.469 1732.09,5.26172 H 1585.56 V 506.469"
         style="fill:#ffffff;fill-opacity:1;fill-rule:nonzero;stroke:none"
         id="path16" /><path
         d="m 2850.98,199.129 -108.2,199.883 -106.71,-199.883 z m -208.89,307.34 h 204.38 L 3120.75,5.26172 H 2953.92 L 2904.34,94.6797 H 2581.22 L 2533.13,5.26172 H 2360.31 L 2642.09,506.469"
         style="fill:#ffffff;fill-opacity:1;fill-rule:nonzero;stroke:none"
         id="path18" /><path
         d="m 3307.89,382.469 h -223.18 v 124 h 598.89 v -124 H 3460.43 V 5.26172 H 3307.89 V 382.469"
         style="fill:#ffffff;fill-opacity:1;fill-rule:nonzero;stroke:none"
         id="path20" /><path
         d="m 3960.9,506.469 h 60.11 V 5.26172 H 3960.9 V 506.469"
         style="fill:#ffffff;fill-opacity:1;fill-rule:nonzero;stroke:none"
         id="path22" /><path
         d="m 4362.92,456.121 h -254.74 v 50.348 h 568.84 v -50.348 h -254 V 5.26172 h -60.1 V 456.121"
         style="fill:#ffffff;fill-opacity:1;fill-rule:nonzero;stroke:none"
         id="path24" /><path
         d="m 2975.89,1596.22 4.15,6.96 4.38,6.73 4.89,6.7 5.13,6.69 5.44,6.69 5.91,6.45 5.94,6.7 6.43,6.46 6.96,6.42 6.97,6.22 7.48,6.42 7.74,6.19 7.72,6.18 8.26,6.18 8.76,5.96 8.77,5.9 9,5.95 9.28,5.91 9.81,5.67 9.79,5.68 10.07,5.67 10.28,5.4 21.42,10.84 22.42,10.31 23.21,10.05 23.95,9.78 24.73,9.32 c -113.92,-46.42 -200.55,-106.22 -237.92,-171.7 -86.06,-150.52 134.33,-246.14 476.36,-248.21 176.32,-1.03 341.56,2.3 484.1,53.61 -148.72,-60.59 -344.1,-98.74 -537.72,-97.69 -342.31,2.03 -549.82,125.79 -463.71,276.56 v 0"
         style="fill:#d11f42;fill-opacity:1;fill-rule:nonzero;stroke:none"
         id="path26" /><path
         d="m 3480.86,811.066 h 20.88 l 22.44,0.266 23.94,0.273 25.53,0.508 26.81,0.516 28.1,0.781 29.63,1.016 30.67,1.289 32.22,1.797 33.26,1.808 34.29,2.344 35.31,2.547 36.36,3.098 37.37,3.367 38.4,3.867 38.95,4.387 39.91,4.89 40.75,5.403 83.53,12.371 86.09,14.949 87.87,17.801 89.47,20.351 91,23.727 91.49,26.801 45.87,14.675 46.15,15.735 C 4260.09,689.422 3857.2,675.48 3489.11,661.59 3073.35,645.582 2385.09,836.34 2372.45,1264.48 2574.06,886.598 3162.5,811.066 3480.86,811.066 v 0"
         style="fill:#d11f42;fill-opacity:1;fill-rule:nonzero;stroke:none"
         id="path28" /></g></g></svg>
