<?xml version="1.0" encoding="UTF-8" standalone="no"?>
<!-- Created with Inkscape (http://www.inkscape.org/) -->

<svg
   version="1.1"
   id="svg2"
   xml:space="preserve"
   width="2666.6665"
   height="1749.76"
   viewBox="0 0 2666.6665 1749.76"
   sodipodi:docname="efs-logo.svg"
   inkscape:version="1.2.1 (9c6d41e410, 2022-07-14)"
   xmlns:inkscape="http://www.inkscape.org/namespaces/inkscape"
   xmlns:sodipodi="http://sodipodi.sourceforge.net/DTD/sodipodi-0.dtd"
   xmlns="http://www.w3.org/2000/svg"
   xmlns:svg="http://www.w3.org/2000/svg"><defs
     id="defs6" /><sodipodi:namedview
     id="namedview4"
     pagecolor="#ffffff"
     bordercolor="#666666"
     borderopacity="1.0"
     inkscape:pageshadow="2"
     inkscape:pageopacity="0.0"
     inkscape:pagecheckerboard="0"
     inkscape:showpageshadow="2"
     inkscape:deskcolor="#d1d1d1"
     showgrid="false"
     inkscape:zoom="0.58693763"
     inkscape:cx="1334.0429"
     inkscape:cy="874.02813"
     inkscape:window-width="3840"
     inkscape:window-height="2036"
     inkscape:window-x="-12"
     inkscape:window-y="-12"
     inkscape:window-maximized="1"
     inkscape:current-layer="g8" /><g
     id="g8"
     inkscape:groupmode="layer"
     inkscape:label="ink_ext_XXXXXX"
     transform="matrix(1.3333333,0,0,-1.3333333,0,1749.76)"><g
       id="g10"
       transform="scale(0.1)"><path
         d="m 3004.59,9129.36 c -409.62,0 -740.39,-143.47 -992.31,-430.1 -251.92,-286.74 -412.7,-686.12 -482.33,-1198.15 h 2844.84 v 110.6 c -32.77,499.74 -165.9,877.62 -399.39,1133.63 -233.48,255.91 -557.09,384.02 -970.81,384.02 z m 178.19,-5695.82 c -946.23,0 -1713.25,298 -2301.065,894.01 C 293.906,4923.55 0,5717.09 0,6708.49 v 184.33 c 0,663.59 128.008,1256.52 384.023,1778.79 256.016,522.27 615.461,928.72 1078.337,1219.66 462.87,290.83 979,436.23 1548.38,436.23 905.27,0 1604.7,-288.8 2098.3,-866.34 493.59,-577.57 740.39,-1394.77 740.39,-2451.6 V 6407.41 H 1505.37 c 45.06,-549 228.36,-983.1 549.92,-1302.6 321.55,-319.51 726.06,-479.26 1213.51,-479.26 684.07,0 1241.16,276.49 1671.27,829.49 l 804.91,-768.05 C 5478.72,4289.66 5123.37,3981.31 4678.93,3762.26 4234.49,3543.22 3735.77,3433.54 3182.78,3433.54"
         style="fill:#ffffff;fill-opacity:1;fill-rule:nonzero;stroke:none"
         id="path12" /><path
         d="m 7907.79,5758.57 c 278.55,0 493.6,-78.96 645.16,-236.56 151.56,-157.71 227.34,-355.45 227.34,-592.93 0,-233.49 -75.78,-427.03 -227.34,-580.64 -151.56,-153.61 -366.61,-230.42 -645.16,-230.42 -266.25,0 -477.21,75.78 -632.87,227.34 -155.65,151.46 -233.48,346.14 -233.48,583.72 0,237.48 75.78,435.22 227.34,592.93 151.56,157.6 364.57,236.56 639.01,236.56 z m 0,4167.92 c 278.55,0 493.6,-78.95 645.16,-236.55 151.56,-157.71 227.34,-355.46 227.34,-592.94 0,-233.48 -75.78,-427.03 -227.34,-580.64 -151.56,-153.61 -366.61,-230.41 -645.16,-230.41 -266.25,0 -477.21,75.78 -632.87,227.34 -155.65,151.46 -233.48,346.13 -233.48,583.71 0,237.48 75.78,435.23 227.34,592.94 151.56,157.6 364.57,236.55 639.01,236.55"
         style="fill:#ffffff;fill-opacity:1;fill-rule:nonzero;stroke:none"
         id="path14" /><path
         d="M 10869.4,3556.43 V 9098.64 H 9855.56 v 1105.96 h 1013.84 v 608.3 c 0,737.3 204.8,1306.6 614.4,1708.2 409.6,401.4 983.1,602.1 1720.4,602.1 262.2,0 540.7,-36.9 835.7,-110.6 l -36.9,-1167.4 c -163.8,32.7 -354.3,49.1 -571.4,49.1 -712.8,0 -1069.1,-366.6 -1069.1,-1099.8 v -589.9 h 1351.7 V 9098.64 H 12362.5 V 3556.43 h -1493.1"
         style="fill:#ffffff;fill-opacity:1;fill-rule:nonzero;stroke:none"
         id="path16" /><path
         d="m 18531.5,5362.87 c 0,266.26 -109.6,469.02 -328.7,608.29 -219.2,139.17 -582.7,262.06 -1090.6,368.66 -508,106.51 -931.9,241.68 -1271.9,405.53 -745.7,360.37 -1118.4,882.64 -1118.4,1566.81 0,573.48 241.7,1052.74 725,1437.79 483.5,384.95 1097.9,577.55 1843.4,577.55 794.7,0 1436.8,-196.6 1926.3,-589.84 489.5,-393.24 734.2,-903.22 734.2,-1529.95 h -1493 c 0,286.63 -106.5,525.34 -319.5,715.82 -213,190.47 -495.7,285.71 -848,285.71 -327.7,0 -594.9,-75.88 -801.8,-227.34 -206.9,-151.56 -310.3,-354.32 -310.3,-608.29 0,-229.49 96.3,-407.68 288.8,-534.56 192.5,-126.98 581.7,-254.99 1167.4,-384.02 585.8,-129.04 1045.6,-282.64 1379.4,-460.83 333.9,-178.19 581.7,-392.32 743.5,-642.09 161.8,-249.87 242.7,-552.99 242.7,-909.36 0,-598.16 -247.8,-1082.43 -743.5,-1453.14 -495.6,-370.82 -1144.9,-556.07 -1947.7,-556.07 -544.8,0 -1030.2,98.31 -1456.2,294.93 -426.2,196.62 -758,466.97 -995.5,811.06 -237.6,344.08 -356.4,714.79 -356.4,1112.13 h 1450.2 c 20.4,-352.38 153.6,-623.66 399.3,-814.13 245.8,-190.48 571.5,-285.72 977,-285.72 393.2,0 692.3,74.66 897.1,224.27 204.8,149.52 307.2,345.01 307.2,586.79"
         style="fill:#ffffff;fill-opacity:1;fill-rule:nonzero;stroke:none"
         id="path18" /><path
         d="M 1702.71,1767.2 H 1071.94 V 27.6992 H 723.219 V 1767.2 H 98.0117 v 283.4 H 1702.71 v -283.4"
         style="fill:#ffffff;fill-opacity:1;fill-rule:nonzero;stroke:none"
         id="path20" /><path
         d="m 2215.7,1287.9 c -92.62,0 -167.41,-32.5 -224.38,-97.3 -56.96,-64.8 -93.32,-155.1 -109.06,-270.901 h 643.27 v 25 c -7.43,113.001 -37.52,198.401 -90.31,256.301 -52.79,57.9 -125.97,86.9 -219.52,86.9 z M 2256,0 C 2042.04,0 1868.58,67.3008 1735.69,202.102 1602.76,336.898 1536.32,516.301 1536.32,740.5 v 41.602 c 0,150.097 28.93,284.198 86.83,402.298 57.88,118.1 139.15,210 243.83,275.7 104.66,65.8 221.36,98.7 350.11,98.7 204.69,0 362.84,-65.3 474.46,-195.9 111.61,-130.6 167.42,-315.4 167.42,-554.4 V 672.398 H 1876.7 c 10.18,-124.097 51.63,-222.3 124.35,-294.5 72.7,-72.296 164.16,-108.398 274.39,-108.398 154.68,0 280.65,62.5 377.9,187.5 L 2835.35,283.398 C 2775.13,193.5 2694.79,123.801 2594.3,74.3008 2493.79,24.6992 2381.04,0 2256,0"
         style="fill:#ffffff;fill-opacity:1;fill-rule:nonzero;stroke:none"
         id="path22" /><path
         d="m 3752.65,269.5 c 84.27,0 154.22,24.5 209.79,73.602 55.57,49.097 85.21,109.796 88.92,181.996 h 318.16 c -3.71,-93.5 -32.89,-180.797 -87.53,-261.899 C 4227.33,182.199 4153.24,118 4059.69,70.8008 3966.13,23.6016 3865.19,0 3756.82,0 3546.55,0 3379.83,68 3256.66,204.199 3133.46,340.301 3071.87,528.398 3071.87,768.301 V 803 c 0,228.7 61.13,411.9 183.39,549.5 122.27,137.5 288.99,206.3 500.17,206.3 178.74,0 324.41,-52.1 436.95,-156.3 112.53,-104.2 171.58,-241.1 177.14,-410.602 h -318.16 c -3.71,86.202 -33.13,157.002 -88.23,212.602 -55.11,55.6 -125.27,83.4 -210.48,83.4 -109.3,0 -193.6,-39.6 -252.86,-118.8 -59.29,-79.2 -89.39,-199.401 -90.31,-360.6 v -54.102 c 0,-163.097 29.4,-284.597 88.23,-364.699 C 3556.51,309.5 3641.5,269.5 3752.65,269.5"
         style="fill:#ffffff;fill-opacity:1;fill-rule:nonzero;stroke:none"
         id="path24" /><path
         d="m 4971.44,1367.1 c 110.21,127.8 249.6,191.7 418.18,191.7 320.46,0 483.02,-182.9 487.67,-548.8 V 27.6992 H 5539.67 V 997.5 c 0,103.7 -22.46,177.1 -67.38,220.2 -44.94,43.1 -110.93,64.6 -197.98,64.6 -135.24,0 -236.19,-60.2 -302.87,-180.6 V 27.6992 H 4633.82 V 2161.8 h 337.62 v -794.7"
         style="fill:#ffffff;fill-opacity:1;fill-rule:nonzero;stroke:none"
         id="path26" /><path
         d="M 7871.32,27.6992 H 7521.21 V 925.199 H 6616.74 V 27.6992 h -351.5 V 2050.6 h 351.5 v -841.9 h 904.47 v 841.9 h 350.11 V 27.6992"
         style="fill:#ffffff;fill-opacity:1;fill-rule:nonzero;stroke:none"
         id="path28" /><path
         d="M 9179.03,175 C 9079.91,58.3008 8939.13,0 8756.67,0 8593.64,0 8470.22,47.5977 8386.41,143 8302.57,238.398 8260.67,376.5 8260.67,557.102 V 1531 h 337.61 V 561.199 c 0,-190.801 79.2,-286.199 237.58,-286.199 163.95,0 274.61,58.801 332.06,176.5 V 1531 h 337.6 V 27.6992 H 9187.36 L 9179.03,175"
         style="fill:#ffffff;fill-opacity:1;fill-rule:nonzero;stroke:none"
         id="path30" /><path
         d="m 10845.2,793.301 c 0,163 -28.7,285.199 -86.2,366.799 -57.4,81.4 -140.8,122.2 -250,122.2 -146.4,0 -249.2,-63.9 -308.5,-191.7 V 470.898 c 60.2,-130.597 164,-195.898 311.2,-195.898 105.6,0 187.1,39.398 244.6,118.102 57.4,78.699 87,197.796 88.9,357.097 z m 337.6,-29.203 C 11182.8,530.699 11130.7,345 11026.5,207 10922.3,68.8984 10778.9,0 10596.5,0 c -176,0 -313.1,63.3984 -411.3,190.301 L 10168.6,27.6992 H 9862.92 V 2161.8 h 337.58 v -775.3 c 97.3,114.8 228.3,172.3 393.2,172.3 183.4,0 327.4,-68.1 432.1,-204.2 104.6,-136.2 157,-326.5 157,-571.1 v -19.402"
         style="fill:#ffffff;fill-opacity:1;fill-rule:nonzero;stroke:none"
         id="path32" /><path
         d="M 13785.7,290.301 C 13712.5,194.898 13611.1,122.699 13481.4,73.6016 13351.7,24.5 13204.5,0 13039.6,0 c -169.5,0 -319.5,38.3984 -450.1,115.301 -130.6,76.801 -231.3,186.801 -302.2,329.898 -70.9,143.102 -107.7,310.102 -110.5,500.903 V 1104.5 c 0,305.6 73.2,544.4 219.6,716.2 146.3,171.8 350.5,257.7 612.7,257.7 225,0 403.8,-55.8 536.2,-167.4 132.5,-111.6 212.1,-272.1 239,-481.4 h -344.5 c -38.9,243.6 -180.2,365.4 -423.8,365.4 -157.5,0 -277.2,-56.7 -359.1,-170.1 -82,-113.3 -124.4,-279.7 -127.2,-499 V 970.5 c 0,-218.398 46.1,-388 138.3,-508.801 92.1,-120.699 220.2,-181.097 384.1,-181.097 179.7,0 307.5,40.699 383.5,122.296 v 395.903 h -416.8 V 1065.6 h 766.9 V 290.301"
         style="fill:#ffffff;fill-opacity:1;fill-rule:nonzero;stroke:none"
         id="path34" /><path
         d="m 14471,1531 9.7,-157 c 105.6,123.2 250.1,184.8 433.5,184.8 201,0 338.5,-76.9 412.6,-230.6 109.3,153.7 263.1,230.6 461.3,230.6 165.8,0 289.2,-45.9 370.2,-137.6 81.1,-91.6 122.5,-226.9 124.4,-405.6 V 27.6992 h -337.6 V 1005.8 c 0,95.4 -20.9,165.4 -62.6,209.8 -41.6,44.5 -110.6,66.7 -207,66.7 -76.9,0 -139.6,-20.6 -188.2,-61.8 -48.6,-41.2 -82.7,-95.2 -102.1,-161.9 l 1.4,-1030.9008 h -337.7 V 1016.9 c -4.6,176.9 -94.9,265.4 -270.9,265.4 -135.2,0 -231.1,-55.1 -287.6,-165.3 V 27.6992 h -337.6 V 1531 h 318.2"
         style="fill:#ffffff;fill-opacity:1;fill-rule:nonzero;stroke:none"
         id="path36" /><path
         d="m 17625.1,793.301 c 0,163 -28.7,285.199 -86.1,366.799 -57.5,81.4 -140.8,122.2 -250.1,122.2 -146.4,0 -249.2,-63.9 -308.4,-191.7 V 470.898 C 17040.7,340.301 17144.4,275 17291.7,275 c 105.6,0 187.1,39.398 244.5,118.102 57.4,78.699 87,197.796 88.9,357.097 z m 337.6,-29.203 C 17962.7,530.699 17910.6,345 17806.4,207 17702.2,68.8984 17558.9,0 17376.4,0 c -176,0 -313.1,63.3984 -411.2,190.301 l -16.7,-162.6018 h -305.7 V 2161.8 h 337.7 v -775.3 c 97.2,114.8 228.3,172.3 393.1,172.3 183.4,0 327.4,-68.1 432.1,-204.2 104.7,-136.2 157,-326.5 157,-571.1 v -19.402"
         style="fill:#ffffff;fill-opacity:1;fill-rule:nonzero;stroke:none"
         id="path38" /><path
         d="m 19898.4,27.6992 h -350.1 V 925.199 h -904.5 V 27.6992 h -351.5 V 2050.6 h 351.5 v -841.9 h 904.5 v 841.9 h 350.1 V 27.6992"
         style="fill:#ffffff;fill-opacity:1;fill-rule:nonzero;stroke:none"
         id="path40" /></g></g></svg>
