<?xml version="1.0" encoding="UTF-8"?>
<svg id="Ebene_1" data-name="Ebene 1" xmlns="http://www.w3.org/2000/svg" viewBox="0 0 498.32 58.48">
  <defs>
    <style>
      .cls-1 {
        fill: #fff;
        fill-rule: evenodd;
        stroke-width: 0px;
      }
    </style>
  </defs>
  <path class="cls-1" d="m382.17,35.54c6.32,0,11.47,5.15,11.47,11.47s-5.15,11.46-11.47,11.46-11.47-5.15-11.47-11.46,5.15-11.47,11.47-11.47h0Z"/>
  <polygon class="cls-1" points="0 56.74 38.4 56.74 56.52 17.22 56.52 56.74 87.51 56.74 124.03 17.22 105.68 56.74 144.17 56.74 170.32 .05 111.81 .05 84.9 29.17 84.9 .05 26.15 .05 0 56.74 0 56.74"/>
  <path class="cls-1" d="m498.32.05v56.69h-41.29l1.1-14.8h-23.09l-13.34,14.8h-27.76c4.66-5.34,3.66-11.44,2.74-14.85L438.15.05h60.17Zm-52.09,29.49l13.97-15.49-1.15,15.49h-12.82Z"/>
  <path class="cls-1" d="m299.19.05l-26.15,56.69h61.11c13.01,0,24.13-2.13,33.22-5.57-3.41-17.75,15.07-23.58,23.69-16.68,11.95-16.36,3.28-35.57-30.45-34.44h-61.42Zm36.47,10.12l-16.78,36.39c22.58.02,25.32-1.9,33.31-17.02,7.08-15.74,5.51-19.49-16.52-19.37h0Z"/>
  <path class="cls-1" d="m211.2,31.78l-6.82,14.78h5.74c22.76,0,23.91-14.78,9.88-14.78h-8.8Zm9.97-21.62l-5.86,12.71h5.94c18.76,0,21.59-12.71,7.88-12.71h-7.95ZM185.09.05l-26.14,56.69h60.98c64.09,0,57.98-30.68,32.1-29.95C291.95,21.24,277.86.05,254.45.05h-69.36Z"/>
</svg>