<?xml version="1.0" encoding="UTF-8" standalone="no"?>
<svg
   id="Ebene_1"
   data-name="Ebene 1"
   width="93.050949mm"
   height="17.690554mm"
   viewBox="0 0 263.77204 50.142892"
   version="1.1"
   sodipodi:docname="securai-logo.svg"
   inkscape:version="1.2.1 (9c6d41e410, 2022-07-14)"
   xmlns:inkscape="http://www.inkscape.org/namespaces/inkscape"
   xmlns:sodipodi="http://sodipodi.sourceforge.net/DTD/sodipodi-0.dtd"
   xmlns="http://www.w3.org/2000/svg"
   xmlns:svg="http://www.w3.org/2000/svg">
  <sodipodi:namedview
     id="namedview278"
     pagecolor="#ffffff"
     bordercolor="#000000"
     borderopacity="0.25"
     inkscape:showpageshadow="2"
     inkscape:pageopacity="0.0"
     inkscape:pagecheckerboard="0"
     inkscape:deskcolor="#d1d1d1"
     inkscape:document-units="mm"
     showgrid="false"
     inkscape:zoom="5.1598418"
     inkscape:cx="175.78058"
     inkscape:cy="33.625062"
     inkscape:window-width="3840"
     inkscape:window-height="2036"
     inkscape:window-x="-12"
     inkscape:window-y="-12"
     inkscape:window-maximized="1"
     inkscape:current-layer="Ebene_1" />
  <defs
     id="defs255">
    <style
       id="style253">.cls-1{fill:#3a393c;}.cls-2{fill:#811911;}</style>
  </defs>
  <title
     id="title257">securai-logo</title>
  <path
     class="cls-1"
     d="m 60.042026,33.035082 h 21.64 a 2.09,2.09 0 0 0 2.09,-2.1 v -2.08 a 2.08,2.08 0 0 0 -2.09,-2.09 h -16.85 a 5.57,5.57 0 0 1 -5.53,-5.57 v -2.09 a 5.55,5.55 0 0 1 5.53,-5.59 h 21.64 v 3.44 h -21.64 a 2.12,2.12 0 0 0 -2.1,2.12 v 2.09 a 2.09,2.09 0 0 0 2.1,2.09 h 16.85 a 5.55,5.55 0 0 1 5.53,5.56 v 2.09 a 5.54,5.54 0 0 1 -5.53,5.61 h -21.64 z"
     id="path259" />
  <path
     class="cls-1"
     d="m 93.022026,30.945082 v -11.84 a 5.55,5.55 0 0 1 5.57,-5.59 h 21.640004 v 3.44 H 98.592026 a 2.12,2.12 0 0 0 -2.1,2.12 v 4.18 h 23.740004 v 3.47 H 96.492026 v 4.18 a 2.09,2.09 0 0 0 2.1,2.1 h 21.640004 v 3.51 H 98.592026 a 5.55,5.55 0 0 1 -5.57,-5.57 z"
     id="path261" />
  <path
     class="cls-1"
     d="m 126.04203,30.945082 v -11.84 a 5.55,5.55 0 0 1 5.56,-5.59 h 21.65 v 3.44 h -21.65 a 2.12,2.12 0 0 0 -2.09,2.12 v 11.87 a 2.09,2.09 0 0 0 2.09,2.1 h 21.65 v 3.47 h -21.65 a 5.54,5.54 0 0 1 -5.56,-5.57 z"
     id="path263" />
  <path
     class="cls-1"
     d="m 159.06203,30.945082 v -17.43 h 3.47 v 17.4 a 2.09,2.09 0 0 0 2.09,2.1 h 16.85 a 2.09,2.09 0 0 0 2.09,-2.1 v -17.4 h 3.44 v 17.4 a 5.54,5.54 0 0 1 -5.53,5.6 h -16.85 a 5.54,5.54 0 0 1 -5.56,-5.57 z"
     id="path265" />
  <path
     class="cls-1"
     d="m 217.30203,28.855082 a 2.08,2.08 0 0 0 -2.09,-2.09 h -17.41 v -3.47 h 17.43 a 2.09,2.09 0 0 0 2.07,-2.1 v -2.09 a 2.12,2.12 0 0 0 -2.09,-2.12 h -18.91 v 19.53 h -3.47 v -23 h 22.42 a 5.54,5.54 0 0 1 5.53,5.57 v 2.09 a 5.55,5.55 0 0 1 -1.51,3.83 5.54,5.54 0 0 1 1.51,3.82 v 7.69 h -3.48 z"
     id="path267" />
  <path
     class="cls-1"
     d="m 251.08203,26.765082 h -21 v 9.75 h -3.47 v -17.41 a 5.55,5.55 0 0 1 5.52,-5.59 h 16.85 a 5.54,5.54 0 0 1 5.53,5.57 v 17.43 h -3.44 z m 0,-7.66 a 2.12,2.12 0 0 0 -2.09,-2.12 h -16.86 a 2.12,2.12 0 0 0 -2.09,2.12 v 4.18 h 21 z"
     id="path269" />
  <path
     class="cls-1"
     d="m 260.30203,13.515082 h 3.47 v 23 h -3.47 z"
     id="path271" />
  <path
     class="cls-2"
     d="m 11.212026,18.515082 a 5.53,5.53 0 0 1 5.51,-5 h 21.64 v 3.44 h -21.64 a 2.08,2.08 0 0 0 -2,1.5 h 5 v 3.44 h -5 a 2.08,2.08 0 0 0 1.95,1.37 h 16.9 a 5.53,5.53 0 0 1 5.47,4.91 h 11 a 25.12,25.12 0 0 0 -49.17000017,-9.66 z"
     id="path273" />
  <path
     class="cls-2"
     d="m 39.032026,31.645082 a 5.51,5.51 0 0 1 -5.46,4.87 h -21.65 v -3.48 h 21.65 a 2.06,2.06 0 0 0 1.95,-1.39 h -5 v -3.44 h 5 a 2.06,2.06 0 0 0 -2,-1.44 h -16.8 a 5.54,5.54 0 0 1 -5.49,-4.84 H 0.19202583 a 25.12,25.12 0 0 0 49.16000017,9.72 z"
     id="path275" />
</svg>
